<?xml version="1.0" encoding="UTF-8" standalone="no"?>
<!DOCTYPE svg PUBLIC "-//W3C//DTD SVG 1.1//EN"
 "http://www.w3.org/Graphics/SVG/1.1/DTD/svg11.dtd">
<!-- Generated by graphviz version 2.44.0 (20200408.0750)
 -->
<!-- Title: dependency&#45;cruiser output Pages: 1 -->
<svg width="257pt" height="144pt"
 viewBox="0.00 0.00 257.00 144.00" xmlns="http://www.w3.org/2000/svg" xmlns:xlink="http://www.w3.org/1999/xlink">
<g id="graph0" class="graph" transform="scale(1 1) rotate(0) translate(4 140)">
<title>dependency&#45;cruiser output</title>
<polygon fill="white" stroke="transparent" points="-4,4 -4,-140 253,-140 253,4 -4,4"/>
<g id="clust1" class="cluster">
<title>cluster_</title>
<path fill="#ffffff" stroke="black" stroke-width="2" d="M145,-8C145,-8 229,-8 229,-8 235,-8 241,-14 241,-20 241,-20 241,-64 241,-64 241,-70 235,-76 229,-76 229,-76 145,-76 145,-76 139,-76 133,-70 133,-64 133,-64 133,-20 133,-20 133,-14 139,-8 145,-8"/>
</g>
<g id="clust2" class="cluster">
<title>cluster_/@utils</title>
<path fill="#ffffff" stroke="black" stroke-width="2" d="M153,-16C153,-16 221,-16 221,-16 227,-16 233,-22 233,-28 233,-28 233,-56 233,-56 233,-62 227,-68 221,-68 221,-68 153,-68 153,-68 147,-68 141,-62 141,-56 141,-56 141,-28 141,-28 141,-22 147,-16 153,-16"/>
<text text-anchor="middle" x="187" y="-56.8" font-family="Helvetica,sans-Serif" font-weight="bold" font-size="9.00">@utils</text>
</g>
<g id="clust3" class="cluster">
<title>cluster_src</title>
<path fill="#ffffff" stroke="black" stroke-width="2" d="M20,-16C20,-16 113,-16 113,-16 119,-16 125,-22 125,-28 125,-28 125,-116 125,-116 125,-122 119,-128 113,-128 113,-128 20,-128 20,-128 14,-128 8,-122 8,-116 8,-116 8,-28 8,-28 8,-22 14,-16 20,-16"/>
<text text-anchor="middle" x="66.5" y="-116.8" font-family="Helvetica,sans-Serif" font-weight="bold" font-size="9.00">src</text>
</g>
<g id="clust4" class="cluster">
<title>cluster_src/utils</title>
<path fill="#ffffff" stroke="black" stroke-width="2" d="M28,-50C28,-50 105,-50 105,-50 111,-50 117,-56 117,-62 117,-62 117,-90 117,-90 117,-96 111,-102 105,-102 105,-102 28,-102 28,-102 22,-102 16,-96 16,-90 16,-90 16,-62 16,-62 16,-56 22,-50 28,-50"/>
<text text-anchor="middle" x="66.5" y="-90.8" font-family="Helvetica,sans-Serif" font-weight="bold" font-size="9.00">utils</text>
</g>
<!-- /@utils/awesome&#45;utils -->
<g id="node1" class="node">
<title>/@utils/awesome&#45;utils</title>
<path fill="#ffffcc" stroke="red" d="M219,-42C219,-42 155,-42 155,-42 152,-42 149,-39 149,-36 149,-36 149,-30 149,-30 149,-27 152,-24 155,-24 155,-24 219,-24 219,-24 222,-24 225,-27 225,-30 225,-30 225,-36 225,-36 225,-39 222,-42 219,-42"/>
<text text-anchor="middle" x="187" y="-30.8" font-family="Helvetica,sans-Serif" font-size="9.00" fill="red">awesome&#45;utils</text>
</g>
<!-- src/index.ts -->
<g id="node2" class="node">
<title>src/index.ts</title>
<g id="a_node2"><a xlink:href="src/index.ts" xlink:title="index.ts">
<path fill="#ddfeff" stroke="black" d="M87.5,-42C87.5,-42 45.5,-42 45.5,-42 42.5,-42 39.5,-39 39.5,-36 39.5,-36 39.5,-30 39.5,-30 39.5,-27 42.5,-24 45.5,-24 45.5,-24 87.5,-24 87.5,-24 90.5,-24 93.5,-27 93.5,-30 93.5,-30 93.5,-36 93.5,-36 93.5,-39 90.5,-42 87.5,-42"/>
<text text-anchor="middle" x="66.5" y="-30.8" font-family="Helvetica,sans-Serif" font-size="9.00">index.ts</text>
</a>
</g>
</g>
<!-- src/index.ts&#45;&gt;/@utils/awesome&#45;utils -->
<g id="edge1" class="edge">
<title>src/index.ts&#45;&gt;/@utils/awesome&#45;utils</title>
<path fill="none" stroke="#000000" stroke-width="2" stroke-opacity="0.200000" d="M93.51,-33C107.82,-33 125.96,-33 142.38,-33"/>
<polygon fill="#000000" fill-opacity="0.200000" stroke="#000000" stroke-width="2" stroke-opacity="0.200000" points="142.81,-35.1 148.81,-33 142.81,-30.9 142.81,-35.1"/>
</g>
<!-- src/utils/awesome&#45;utils.ts -->
<g id="node3" class="node">
<title>src/utils/awesome&#45;utils.ts</title>
<g id="a_node3"><a xlink:href="src/utils/awesome-utils.ts" xlink:title="awesome&#45;utils.ts">
<path fill="#ccffcc" stroke="black" d="M103,-76C103,-76 30,-76 30,-76 27,-76 24,-73 24,-70 24,-70 24,-64 24,-64 24,-61 27,-58 30,-58 30,-58 103,-58 103,-58 106,-58 109,-61 109,-64 109,-64 109,-70 109,-70 109,-73 106,-76 103,-76"/>
<text text-anchor="middle" x="66.5" y="-64.8" font-family="Helvetica,sans-Serif" font-size="9.00">awesome&#45;utils.ts</text>
</a>
</g>
</g>
</g>
</svg>
